
<global>
amp_veltrack=0
</global>

<group>
ampeg_attack=0.01
ampeg_release=0.25
group_label=PP
loop_mode=loop_continuous
xf_cccurve=gain
xfin_hicc1=63
xfout_hicc1=127
xfout_locc1=64

<region>
hikey=A#2
hivel=127
lokey=A2
loop_end=199214
loop_mode=loop_continuous
loop_start=75266
loop_xfade=23524
lovel=1
offset=9049
pitch_keycenter=A2
sample=Basses_Ahh_sustain_PP_A2.opus
tune=-10
</region>

<region>
hikey=A#3
hivel=127
lokey=A3
loop_end=199214
loop_mode=loop_continuous
loop_start=75266
loop_xfade=23524
lovel=1
offset=6429
pitch_keycenter=A3
sample=Basses_Ahh_sustain_PP_A3.opus
tune=-22
</region>

<region>
hikey=C3
hivel=127
lokey=B2
loop_end=201214
loop_mode=loop_continuous
loop_start=76021
loop_xfade=23760
lovel=1
offset=8178
pitch_keycenter=B2
sample=Basses_Ahh_sustain_PP_B2.opus
tune=+9
</region>

<region>
hikey=C4
hivel=127
lokey=B3
loop_end=199214
loop_mode=loop_continuous
loop_start=75266
loop_xfade=23524
lovel=1
offset=6490
pitch_keycenter=B3
sample=Basses_Ahh_sustain_PP_B3.opus
tune=-15
</region>

<region>
hikey=D3
hivel=127
lokey=C#3
loop_end=199214
loop_mode=loop_continuous
loop_start=75266
loop_xfade=23524
lovel=1
offset=5319
pitch_keycenter=C#3
sample=Basses_Ahh_sustain_PP_C#3.opus
tune=-5
</region>

<region>
hikey=D4
hivel=127
lokey=C#4
loop_end=199214
loop_mode=loop_continuous
loop_start=75266
loop_xfade=23524
lovel=1
offset=4844
pitch_keycenter=C#4
sample=Basses_Ahh_sustain_PP_C#4.opus
tune=-17
</region>

<region>
hikey=E2
hivel=127
lokey=D#2
loop_end=201006
loop_mode=loop_continuous
loop_start=75943
loop_xfade=23736
lovel=1
offset=5430
pitch_keycenter=D#2
sample=Basses_Ahh_sustain_PP_D#2.opus
tune=-12
</region>

<region>
hikey=E3
hivel=127
lokey=D#3
loop_end=199214
loop_mode=loop_continuous
loop_start=75266
loop_xfade=23524
lovel=1
offset=7378
pitch_keycenter=D#3
sample=Basses_Ahh_sustain_PP_D#3.opus
tune=-19
</region>

<region>
hikey=G#4
hivel=127
lokey=D#4
loop_end=199214
loop_mode=loop_continuous
loop_start=75266
loop_xfade=23524
lovel=1
offset=5354
pitch_keycenter=D#4
sample=Basses_Ahh_sustain_PP_D#4.opus
tune=-19
</region>

<region>
hikey=D2
hivel=127
lokey=G1
loop_end=201214
loop_mode=loop_continuous
loop_start=76021
loop_xfade=23760
lovel=1
offset=6390
pitch_keycenter=D2
sample=Basses_Ahh_sustain_PP_D2.opus
tune=-6
</region>

<region>
hikey=F#2
hivel=127
lokey=F2
loop_end=201214
loop_mode=loop_continuous
loop_start=76021
loop_xfade=23760
lovel=1
offset=9829
pitch_keycenter=F2
sample=Basses_Ahh_sustain_PP_F2.opus
tune=-11
</region>

<region>
hikey=F#3
hivel=127
lokey=F3
loop_end=198961
loop_mode=loop_continuous
loop_start=75170
loop_xfade=23494
lovel=1
offset=8114
pitch_keycenter=F3
sample=Basses_Ahh_sustain_PP_F3.opus
tune=-6
</region>

<region>
hikey=G#2
hivel=127
lokey=G2
loop_end=199214
loop_mode=loop_continuous
loop_start=75266
loop_xfade=23524
lovel=1
offset=7327
pitch_keycenter=G2
sample=Basses_Ahh_sustain_PP_G2.opus
tune=-14
</region>

<region>
hikey=G#3
hivel=127
lokey=G3
loop_end=199214
loop_mode=loop_continuous
loop_start=75266
loop_xfade=23524
lovel=1
offset=3254
pitch_keycenter=G3
sample=Basses_Ahh_sustain_PP_G3.opus
tune=-14
</region>
</group>

<group>
ampeg_attack=0.01
ampeg_release=0.25
group_label=FF
loop_mode=loop_continuous
xf_cccurve=gain
xfin_hicc1=127
xfin_locc1=64
xfout_hicc1=127
xfout_locc1=127

<region>
hikey=A#2
hivel=127
lokey=A2
loop_end=196438
loop_mode=loop_continuous
loop_start=74217
loop_xfade=23196
lovel=1
offset=5500
pitch_keycenter=A2
sample=Basses_Ahh_sustain_FF_A2.opus
tune=-20
</region>

<region>
hikey=A#3
hivel=127
lokey=A3
loop_end=195169
loop_mode=loop_continuous
loop_start=73738
loop_xfade=23046
lovel=1
offset=3188
pitch_keycenter=A3
sample=Basses_Ahh_sustain_FF_A3.opus
tune=+5
</region>

<region>
hikey=C3
hivel=127
lokey=B2
loop_end=196298
loop_mode=loop_continuous
loop_start=74164
loop_xfade=23180
lovel=1
offset=3760
pitch_keycenter=B2
sample=Basses_Ahh_sustain_FF_B2.opus
</region>

<region>
hikey=C4
hivel=127
lokey=B3
loop_end=194003
loop_mode=loop_continuous
loop_start=73297
loop_xfade=22909
lovel=1
offset=4232
pitch_keycenter=B3
sample=Basses_Ahh_sustain_FF_B3.opus
tune=-9
</region>

<region>
hikey=D3
hivel=127
lokey=C#3
loop_end=197361
loop_mode=loop_continuous
loop_start=73129
loop_xfade=22856
lovel=1
offset=5793
pitch_keycenter=C#3
sample=Basses_Ahh_sustain_FF_C#3.opus
tune=+20
</region>

<region>
hikey=D4
hivel=127
lokey=C#4
loop_end=193902
loop_mode=loop_continuous
loop_start=73259
loop_xfade=22897
lovel=1
offset=3683
pitch_keycenter=C#4
sample=Basses_Ahh_sustain_FF_C#4.opus
tune=+5
</region>

<region>
hikey=E2
hivel=127
lokey=D#2
loop_end=200869
loop_mode=loop_continuous
loop_start=75891
loop_xfade=23720
lovel=1
offset=15038
pitch_keycenter=D#2
sample=Basses_Ahh_sustain_FF_D#2.opus
tune=+1
</region>

<region>
hikey=E3
hivel=127
lokey=D#3
loop_end=193772
loop_mode=loop_continuous
loop_start=73210
loop_xfade=22881
lovel=1
offset=5390
pitch_keycenter=D#3
sample=Basses_Ahh_sustain_FF_D#3.opus
tune=-1
</region>

<region>
hikey=G#4
hivel=127
lokey=D#4
loop_end=195343
loop_mode=loop_continuous
loop_start=73803
loop_xfade=23067
lovel=1
offset=1859
pitch_keycenter=D#4
sample=Basses_Ahh_sustain_FF_D#4.opus
tune=-3
</region>

<region>
hikey=D2
hivel=127
lokey=G1
loop_end=201214
loop_mode=loop_continuous
loop_start=76021
loop_xfade=23760
lovel=1
offset=11662
pitch_keycenter=D2
sample=Basses_Ahh_sustain_FF_D2.opus
tune=-5
</region>

<region>
hikey=F#2
hivel=127
lokey=F2
loop_end=201214
loop_mode=loop_continuous
loop_start=76021
loop_xfade=23760
lovel=1
offset=13344
pitch_keycenter=F2
sample=Basses_Ahh_sustain_FF_F2.opus
tune=-4
</region>

<region>
hikey=F#3
hivel=127
lokey=F3
loop_end=194213
loop_mode=loop_continuous
loop_start=73376
loop_xfade=22934
lovel=1
offset=5294
pitch_keycenter=F3
sample=Basses_Ahh_sustain_FF_F3.opus
tune=+10
</region>

<region>
hikey=G#2
hivel=127
lokey=G2
loop_end=199214
loop_mode=loop_continuous
loop_start=75266
loop_xfade=23524
lovel=1
offset=8787
pitch_keycenter=G2
sample=Basses_Ahh_sustain_FF_G2.opus
tune=+7
</region>

<region>
hikey=G#3
hivel=127
lokey=G3
loop_end=199214
loop_mode=loop_continuous
loop_start=75266
loop_xfade=23524
lovel=1
offset=6946
pitch_keycenter=G3
sample=Basses_Ahh_sustain_FF_G3.opus
tune=+2
</region>
</group>